<?xml version="1.0" encoding="utf-8"?>
<svg viewBox="0 0 500 500" width="500" height="500" xmlns="http://www.w3.org/2000/svg" xmlns:bx="https://boxy-svg.com">
  <ellipse style="fill: rgb(216, 216, 216); stroke: rgb(0, 0, 0);" cx="250" cy="250" rx="250" ry="250"/>
  <ellipse style="fill: rgb(216, 216, 216); stroke: rgb(0, 0, 0); mix-blend-mode: screen;" cx="75" cy="300" rx="25" ry="25"/>
  <circle style="fill: rgb(216, 216, 216); stroke: rgb(0, 0, 0); mix-blend-mode: screen;" transform="matrix(0.722543, 0, 0, 0.683487, -41.907516, -27.437113)" cx="300.2" cy="354.706" r="34.6"/>
  <circle style="fill: rgb(216, 216, 216); stroke: rgb(0, 0, 0); mix-blend-mode: screen;" transform="matrix(0.722543, 0, 0, 0.672367, -41.907337, -21.390303)" cx="473.2" cy="403.634" r="34.6"/>
  <circle style="fill: rgb(216, 216, 216); stroke: rgb(0, 0, 0); mix-blend-mode: screen;" transform="matrix(0.722543, 0, 0, 0.691129, -41.907516, -32.168892)" cx="611.6" cy="278.051" r="34.6"/>
  <path d="M 70.087 296.301 H 207.025 L 207.025 296.301 L 208.025 301.301 L 207.025 306.301 L 207.025 306.301 H 70.087 V 296.301 Z" style="fill: rgb(216, 216, 216); stroke: rgb(0, 0, 0); mix-blend-mode: screen;" transform="matrix(0.764775, -0.644297, 0.644297, 0.764775, -177.640961, 116.029991)" bx:shape="arrow 70.087 296.301 137.938 10 10 1 0 1@e5800b5c"/>
  <path d="M 172.688 203.092 H 307.868 L 307.868 203.092 L 308.868 208.092 L 307.868 213.092 L 307.868 213.092 H 172.688 V 203.092 Z" style="fill: rgb(216, 216, 216); stroke: rgb(0, 0, 0); mix-blend-mode: screen;" transform="matrix(0.949739, 0.313042, -0.313042, 0.949739, 73.821243, -43.599728)" bx:shape="arrow 172.688 203.092 136.18 10 10 1 0 1@e8c53f37"/>
  <path d="M 302.023 245.723 H 436.001 L 436.001 245.723 L 437.001 250.723 L 436.001 255.723 L 436.001 255.723 H 302.023 V 245.723 Z" style="fill: rgb(216, 216, 216); stroke: rgb(0, 0, 0); mix-blend-mode: screen;" transform="matrix(0.733365, -0.679835, 0.679835, 0.733365, -89.920059, 272.177216)" bx:shape="arrow 302.023 245.723 134.978 10 10 1 0 1@6f6afa4a"/>
  <rect x="150" y="300" width="50" height="120" style="fill: rgb(216, 216, 216); stroke: rgb(0, 0, 0); mix-blend-mode: screen; isolation: isolate;"/>
  <rect x="275" y="327.5" width="50" height="90" style="fill: rgb(216, 216, 216); stroke: rgb(0, 0, 0); mix-blend-mode: screen; isolation: isolate;"/>
  <rect x="380" y="275" width="50" height="140" style="fill: rgb(216, 216, 216); stroke: rgb(0, 0, 0); mix-blend-mode: screen; isolation: isolate;"/>
</svg>